<svg width="30" height="30" viewBox="0 0 30 30" fill="none" xmlns="http://www.w3.org/2000/svg">
<path d="M21 1L21.554 0.168L21.302 0H21V1ZM27 5H28V4.464L27.554 4.168L27 5ZM25 24H9V26H25V24ZM8 23V3H6V23H8ZM9 2H21V0H9V2ZM26 5V23H28V5H26ZM20.446 1.832L26.446 5.832L27.554 4.168L21.554 0.168L20.446 1.832ZM9 24C8.73478 24 8.48043 23.8946 8.29289 23.7071C8.10536 23.5196 8 23.2652 8 23H6C6 23.7956 6.31607 24.5587 6.87868 25.1213C7.44129 25.6839 8.20435 26 9 26V24ZM25 26C25.7956 26 26.5587 25.6839 27.1213 25.1213C27.6839 24.5587 28 23.7956 28 23H26C26 23.2652 25.8946 23.5196 25.7071 23.7071C25.5196 23.8946 25.2652 24 25 24V26ZM8 3C8 2.73478 8.10536 2.48043 8.29289 2.29289C8.48043 2.10536 8.73478 2 9 2V0C8.20435 0 7.44129 0.31607 6.87868 0.87868C6.31607 1.44129 6 2.20435 6 3H8ZM2 7V27H4V7H2ZM5 30H21V28H5V30ZM5 6H7V4H5V6ZM24 27V25H22V27H24ZM21 30C21.7956 30 22.5587 29.6839 23.1213 29.1213C23.6839 28.5587 24 27.7956 24 27H22C22 27.2652 21.8946 27.5196 21.7071 27.7071C21.5196 27.8946 21.2652 28 21 28V30ZM2 27C2 27.7956 2.31607 28.5587 2.87868 29.1213C3.44129 29.6839 4.20435 30 5 30V28C4.73478 28 4.48043 27.8946 4.29289 27.7071C4.10536 27.5196 4 27.2652 4 27H2ZM4 7C4 6.73478 4.10536 6.48043 4.29289 6.29289C4.48043 6.10536 4.73478 6 5 6V4C4.20435 4 3.44129 4.31607 2.87868 4.87868C2.31607 5.44129 2 6.20435 2 7H4Z" fill="black"/>
</svg>
